<?xml version="1.0" standalone="no"?>
<!DOCTYPE svg PUBLIC "-//W3C//DTD SVG 20010904//EN"
 "http://www.w3.org/TR/2001/REC-SVG-20010904/DTD/svg10.dtd">
<svg version="1.0" xmlns="http://www.w3.org/2000/svg"
 width="1003.000000pt" height="940.000000pt" viewBox="0 0 1003.000000 940.000000"
 preserveAspectRatio="xMidYMid meet">

<g transform="translate(0.000000,940.000000) scale(0.100000,-0.100000)"
fill="#000000" stroke="none">
<path d="M5006 9346 c-61 -105 -185 -240 -300 -328 -219 -168 -441 -263 -901
-384 -455 -120 -611 -171 -765 -250 -260 -134 -415 -341 -461 -617 l-12 -74
-119 -6 c-252 -14 -463 -82 -660 -214 -95 -63 -286 -253 -380 -378 -41 -55
-141 -199 -223 -320 -81 -121 -187 -270 -236 -331 -248 -312 -498 -460 -834
-496 l-112 -12 58 -53 c118 -110 217 -268 273 -434 70 -210 84 -399 67 -899
-18 -506 -3 -677 79 -901 68 -188 222 -376 403 -494 51 -33 86 -62 84 -69 -22
-56 -58 -187 -68 -241 -19 -110 -6 -312 26 -420 59 -198 199 -420 476 -757
307 -374 418 -545 498 -772 57 -161 76 -365 51 -525 -6 -35 -9 -65 -7 -67 2
-3 26 5 53 17 27 11 108 36 179 54 374 96 694 67 1140 -103 72 -28 202 -77
290 -111 296 -113 463 -151 671 -151 246 0 467 67 715 216 l56 34 95 -64 c219
-146 473 -195 775 -150 158 23 262 53 683 194 463 156 589 187 821 206 99 8
255 -8 367 -37 76 -20 245 -96 311 -140 l34 -23 -7 34 c-21 108 -28 237 -17
341 16 150 50 262 126 414 80 160 190 309 424 575 436 494 542 700 528 1034
-6 144 -26 236 -82 371 -32 77 -33 105 -4 105 14 0 85 48 160 107 177 139 291
345 335 611 19 107 22 292 14 872 -4 296 -2 360 13 451 25 155 61 270 122 394
60 123 122 209 219 308 36 36 66 68 66 71 0 3 -24 6 -52 6 -152 1 -382 88
-518 198 -174 140 -310 302 -565 673 -324 472 -549 685 -835 790 -132 48 -211
61 -379 65 l-154 3 -24 83 c-26 91 -84 219 -130 286 -38 55 -135 155 -198 203
-164 124 -355 198 -860 334 -492 132 -731 236 -952 416 -39 33 -95 85 -123
116 -53 59 -190 256 -190 274 0 22 -20 6 -44 -35z m156 -1496 c1 -93 2 -198 3
-232 l0 -63 -47 -3 -48 -3 -2 168 -3 168 -23 -120 c-13 -66 -28 -141 -34 -167
l-10 -48 -42 0 -42 0 -36 158 -36 157 -1 -157 -1 -158 -43 0 -44 0 -6 107 c-4
58 -7 162 -7 230 l0 124 77 -3 77 -3 26 -115 c15 -63 29 -122 31 -130 3 -8 16
39 28 105 31 171 20 155 107 155 l74 0 2 -170z m401 135 c35 -6 38 -8 33 -33
-3 -15 -15 -85 -26 -157 -20 -127 -20 -130 -2 -155 10 -14 30 -26 44 -28 45
-5 59 26 86 193 l26 156 40 -6 c70 -11 76 -14 71 -38 -3 -12 -14 -80 -25 -152
-23 -148 -48 -209 -100 -243 -30 -20 -44 -23 -92 -19 -32 3 -74 13 -95 24 -84
41 -97 105 -64 313 26 161 26 163 48 157 10 -3 35 -8 56 -12z m-1558 -134 c17
-10 38 -32 47 -48 l18 -30 -49 -21 c-49 -20 -50 -20 -67 -1 -12 13 -28 19 -48
17 -26 -2 -31 -7 -31 -28 0 -24 3 -25 84 -33 105 -10 133 -25 160 -80 58 -120
-12 -224 -159 -235 -49 -4 -60 -1 -88 23 -18 15 -40 41 -48 58 -18 34 -15 37
47 57 37 13 40 12 60 -13 34 -45 99 -32 99 19 0 32 -17 41 -98 48 -96 8 -129
26 -154 83 -24 54 -18 99 18 142 46 55 154 77 209 42z m2198 -7 c26 -9 47 -19
47 -22 0 -4 -9 -36 -20 -72 -11 -36 -20 -68 -20 -71 0 -5 98 -39 112 -39 3 0
15 34 27 75 13 41 26 75 30 75 17 0 101 -33 101 -39 0 -15 -126 -421 -133
-427 -7 -8 -95 15 -102 26 -3 4 7 45 20 91 14 45 25 84 25 85 0 3 -104 34
-113 34 -3 0 -17 -38 -32 -85 -15 -51 -31 -85 -39 -85 -17 0 -79 21 -89 30 -4
4 20 96 53 206 34 109 63 207 66 217 7 21 9 21 67 1z m-2679 -384 l156 -175
-47 -22 c-61 -29 -67 -29 -91 4 l-19 27 -59 -26 c-33 -14 -58 -30 -58 -34 1
-5 4 -23 7 -40 6 -29 3 -32 -44 -54 -27 -13 -51 -21 -54 -19 -2 3 -18 99 -35
214 -17 116 -33 220 -35 232 -4 19 3 27 42 47 27 14 55 24 64 23 9 -1 86 -81
173 -177z m3417 83 c27 -16 49 -33 49 -39 0 -14 -89 -456 -93 -460 -6 -6 -102
53 -101 62 1 5 5 23 8 39 6 29 4 32 -50 58 l-57 28 -28 -27 -28 -27 -46 24
c-25 13 -45 27 -45 30 0 10 322 339 332 339 5 0 32 -12 59 -27z m-4017 -193
c14 -22 26 -43 26 -47 0 -5 -20 -21 -45 -36 -27 -18 -42 -33 -38 -40 4 -7 46
-72 95 -144 48 -73 88 -134 88 -136 0 -7 -79 -57 -89 -57 -5 0 -51 63 -103
139 l-95 140 -44 -30 c-24 -16 -47 -29 -50 -29 -10 0 -61 80 -57 90 4 12 259
187 274 189 6 0 23 -17 38 -39z m4525 -128 l33 -28 -62 -124 c-34 -69 -56
-120 -49 -114 8 6 56 45 107 87 l94 77 26 -20 c15 -11 42 -32 60 -47 l33 -28
-142 -175 c-77 -96 -145 -176 -149 -178 -5 -2 -23 10 -41 26 l-33 29 89 109
c49 60 96 118 104 129 15 19 15 19 -4 4 -11 -8 -71 -57 -132 -108 l-113 -93
-29 24 c-17 13 -30 28 -30 35 -1 7 31 73 70 148 39 74 69 135 66 135 -2 0 -48
-54 -102 -120 l-97 -120 -34 27 c-19 14 -33 32 -30 38 2 7 67 89 142 183 l139
170 25 -19 c14 -10 40 -31 59 -47z m-4910 -389 l151 -167 -37 -38 c-20 -21
-40 -38 -44 -38 -3 0 -64 64 -134 143 -71 78 -140 155 -154 170 l-26 29 40 34
c22 18 43 34 47 34 4 0 75 -75 157 -167z m3920 -52 c84 -26 141 -62 195 -122
81 -90 74 -133 -15 -100 -48 17 -88 25 -112 22 -4 -1 0 -12 8 -25 9 -13 20
-55 24 -93 4 -37 11 -75 15 -85 7 -14 3 -15 -31 -8 -21 5 -49 6 -63 3 -33 -8
-100 -41 -123 -61 -23 -20 -52 -7 -118 55 -96 90 -133 190 -105 286 19 65 57
104 128 128 68 24 121 24 197 0z m1527 -57 l44 -51 -80 -101 c-44 -56 -80
-104 -80 -107 0 -4 52 22 117 56 l116 62 39 -44 c21 -24 42 -51 47 -59 7 -12
-30 -48 -167 -163 l-177 -148 -27 33 c-15 18 -28 36 -28 39 0 3 48 46 106 95
157 132 155 129 104 102 -25 -14 -94 -51 -154 -83 l-108 -58 -24 29 c-13 16
-23 33 -24 38 0 5 42 61 93 125 51 64 97 123 102 131 5 8 -49 -35 -119 -95
l-129 -109 -28 35 c-16 19 -27 37 -26 40 5 17 334 287 346 286 7 -1 33 -25 57
-53z m-3817 -8 c8 -5 -2 -18 -27 -36 -22 -16 -83 -77 -137 -137 -174 -193
-192 -202 -414 -213 -233 -11 -320 -49 -389 -170 l-22 -40 27 11 c16 6 89 14
163 19 127 7 199 23 238 53 28 22 7 -11 -70 -110 -173 -221 -255 -263 -510
-263 -83 0 -123 -4 -132 -13 -39 -39 -180 -255 -160 -245 5 2 29 14 54 25 25
12 87 31 139 42 91 20 171 52 220 88 20 14 11 -8 -45 -117 -57 -111 -81 -147
-139 -206 -81 -83 -127 -103 -298 -137 -109 -22 -109 -22 -132 -62 -13 -22
-35 -71 -49 -108 l-26 -68 28 23 c15 13 68 46 116 73 60 34 105 68 142 109 50
55 54 57 49 30 -40 -240 -60 -312 -107 -387 -44 -69 -113 -126 -226 -188
l-101 -54 -6 -50 c-8 -69 -8 -149 0 -223 l7 -62 22 39 c11 21 53 73 93 116 64
69 103 130 131 205 8 22 10 17 21 -40 19 -100 26 -303 12 -365 -15 -67 -68
-149 -159 -245 -39 -41 -71 -84 -71 -95 -1 -37 27 -149 48 -195 16 -37 21 -41
26 -25 4 11 26 63 50 115 47 101 64 160 65 225 1 39 2 38 51 -57 71 -140 100
-235 101 -324 0 -89 -8 -117 -79 -266 l-56 -117 18 -42 c23 -50 97 -124 106
-106 3 7 17 63 29 125 20 97 22 123 13 175 -6 34 -9 63 -8 65 5 6 131 -159
167 -220 87 -143 98 -233 49 -432 l-29 -118 58 -67 c32 -36 86 -95 120 -131
60 -64 61 -65 44 -25 -13 29 -19 83 -24 195 -6 123 -11 166 -28 210 -12 30
-22 56 -22 58 0 2 33 -24 74 -57 123 -101 199 -184 237 -257 l34 -68 3 -178 4
-179 66 -53 c79 -64 188 -124 176 -98 -4 9 -16 51 -26 92 -10 41 -26 104 -35
139 -9 35 -30 85 -48 111 l-33 49 37 -17 c218 -100 349 -208 391 -320 17 -44
70 -270 70 -296 0 -11 121 -76 189 -100 149 -54 224 -61 595 -58 187 1 337 -1
333 -4 -3 -3 -41 -10 -84 -15 -43 -5 -112 -19 -153 -31 -67 -18 -92 -20 -235
-15 -260 10 -460 60 -600 152 l-67 44 -61 -14 c-174 -40 -346 -48 -439 -21
-29 8 -80 30 -113 48 -65 35 -211 169 -264 243 -31 44 -32 46 -9 40 39 -9 126
-10 267 0 l134 8 -25 21 c-14 12 -47 38 -74 58 l-49 38 -180 3 c-150 3 -191 7
-246 25 -149 49 -263 157 -384 365 -15 26 -26 50 -23 52 2 2 23 -3 47 -11 24
-8 112 -21 195 -30 83 -8 164 -17 181 -21 l29 -6 -47 55 c-43 51 -53 57 -115
72 -37 9 -103 28 -147 42 -261 83 -375 227 -459 578 -7 29 -7 29 16 12 52 -38
328 -156 328 -140 0 3 -9 22 -19 43 -15 29 -32 43 -73 61 -115 49 -233 124
-298 189 -109 110 -156 235 -167 443 l-6 117 52 -48 c28 -26 87 -69 132 -95
44 -26 101 -64 126 -83 l46 -35 -7 32 c-3 18 -6 39 -6 47 0 8 -4 11 -10 8 -5
-3 -10 3 -10 13 0 12 -32 47 -85 92 -98 84 -198 202 -232 277 -64 139 -65 293
-4 521 l12 43 25 -47 c30 -57 42 -73 147 -191 56 -64 84 -89 89 -80 4 7 8 44
9 83 2 66 0 72 -43 139 -153 237 -187 401 -122 592 19 57 99 220 123 252 18
23 18 23 34 -42 8 -36 41 -118 72 -182 31 -65 62 -142 68 -171 l12 -54 29 66
29 66 -37 112 c-43 131 -56 197 -56 280 0 147 71 294 223 461 l54 60 1 -70 c0
-41 13 -124 31 -200 16 -71 31 -147 33 -167 l3 -36 55 76 54 77 -4 65 c-22
308 15 438 170 590 53 52 229 183 237 176 1 0 -5 -28 -12 -61 -7 -33 -15 -129
-18 -212 l-5 -153 51 45 c29 25 55 45 58 45 4 0 32 35 62 78 105 149 227 242
365 277 59 15 357 16 381 1z m-2016 -78 c23 -12 21 -27 -11 -70 -22 -29 -31
-34 -45 -26 -40 22 -94 -29 -63 -60 17 -17 13 -19 126 43 57 31 93 31 146 0
42 -24 84 -89 84 -128 0 -58 -77 -158 -136 -177 -36 -12 -95 -1 -128 23 -19
14 -18 16 10 56 29 42 38 44 88 25 9 -3 25 4 40 20 20 20 24 30 17 48 -13 36
-50 34 -127 -7 -90 -48 -132 -45 -186 14 -31 33 -38 48 -38 81 0 49 17 84 62
127 53 52 104 61 161 31z m4970 -241 c78 -37 132 -81 182 -148 46 -62 66 -122
47 -141 -8 -8 -28 -1 -69 22 -83 47 -149 60 -110 21 8 -8 12 -45 12 -112 0
-84 -2 -98 -15 -93 -56 23 -83 25 -138 9 -31 -9 -69 -23 -83 -31 -26 -13 -29
-11 -78 41 -28 30 -65 83 -81 117 -69 145 -19 297 111 337 54 16 162 6 222
-22z m-2049 -76 l35 -69 -14 -373 c-8 -206 -15 -396 -15 -422 l0 -48 -42 3
-43 3 -14 418 -14 419 33 69 c19 38 35 69 37 69 1 0 18 -31 37 -69z m-3260
-195 c47 -27 69 -62 69 -104 0 -27 2 -28 26 -19 34 12 201 0 201 -16 0 -8 -41
-86 -55 -105 -1 -1 -42 2 -91 7 -85 9 -124 3 -124 -18 0 -5 34 -28 75 -50 41
-23 75 -45 75 -49 0 -14 -45 -92 -53 -92 -14 0 -397 215 -397 223 0 16 105
194 131 220 35 35 87 36 143 3z m4261 -97 l-7 -82 -215 -341 c-118 -188 -219
-345 -224 -350 -10 -11 -59 12 -66 30 -2 6 83 174 190 373 l194 362 64 44 c35
24 66 44 68 44 1 1 0 -36 -4 -80z m2392 18 l29 -53 -168 -174 c-92 -95 -169
-172 -171 -169 -2 2 -16 26 -31 53 l-27 50 31 24 30 24 -32 59 c-27 49 -36 58
-53 52 -43 -14 -59 -8 -82 32 -12 22 -21 44 -19 50 2 9 395 101 443 104 16 1
28 -12 50 -52z m-4405 4 l57 -35 195 -362 c108 -200 196 -367 196 -372 0 -11
-44 -42 -58 -42 -5 0 -109 157 -231 348 l-221 349 -7 78 c-4 46 -2 76 3 74 5
-2 35 -20 66 -38z m868 -298 c11 -171 20 -318 20 -327 0 -10 -9 -16 -23 -16
-24 0 -24 3 -57 273 l-32 272 33 70 c18 39 34 63 36 55 1 -8 12 -155 23 -327z
m270 -41 c-40 -321 -36 -302 -65 -302 -21 0 -24 4 -20 28 2 15 11 153 20 307
9 154 18 296 22 315 l5 35 34 -73 33 -72 -29 -238z m468 -97 c-84 -168 -158
-305 -163 -305 -37 0 -29 28 74 270 l106 250 64 45 c36 25 66 45 68 45 2 0
-66 -137 -149 -305z m-1188 -39 c56 -132 104 -244 106 -250 2 -6 -5 -17 -16
-24 -19 -11 -28 4 -175 299 l-156 311 69 -49 70 -48 102 -239z m830 164 c0
-14 -14 -96 -31 -182 -28 -138 -34 -158 -51 -158 -14 0 -18 5 -14 18 2 9 19
104 38 210 30 174 34 190 45 165 7 -15 12 -39 13 -53z m-491 -130 c36 -211 36
-210 17 -210 -18 0 -19 2 -55 192 -25 130 -28 161 -18 187 6 17 14 27 17 23 4
-4 21 -90 39 -192z m1214 108 c-3 -40 -12 -84 -21 -98 -14 -23 -294 -393 -313
-415 -6 -6 -15 -3 -26 7 -15 16 -3 37 172 297 104 155 190 281 191 281 2 0 0
-33 -3 -72z m-1781 -275 c130 -192 155 -233 143 -243 -8 -7 -19 -10 -24 -8 -5
1 -82 97 -170 212 -107 139 -162 219 -165 240 -3 17 -7 55 -10 85 l-5 53 37
-53 c21 -30 108 -158 194 -286z m3361 289 c119 -72 204 -226 195 -353 -2 -32
-8 -62 -12 -66 -4 -4 -36 25 -72 65 -36 39 -70 72 -75 72 -5 0 -9 -15 -9 -34
0 -19 -13 -63 -30 -98 -16 -34 -30 -71 -30 -82 0 -15 -7 -12 -39 17 -42 38
-68 45 -166 50 l-60 2 -23 58 c-29 74 -38 169 -22 235 40 169 188 227 343 134z
m-2079 -89 c-20 -54 -52 -142 -71 -195 -32 -88 -52 -115 -66 -90 -3 4 22 81
54 172 42 120 65 171 84 188 14 12 28 22 30 22 3 0 -11 -44 -31 -97z m-993 50
c9 -10 42 -92 74 -182 47 -132 55 -165 44 -172 -8 -4 -17 -5 -20 -1 -3 4 -30
72 -59 152 -29 80 -61 167 -71 193 -18 45 -18 47 -1 38 9 -5 24 -17 33 -28z
m855 -63 c19 0 18 -6 -18 -131 -21 -75 -36 -109 -46 -109 -11 0 -13 8 -8 39
12 79 49 226 53 214 3 -7 11 -13 19 -13z m-666 -102 c13 -62 25 -119 28 -127
3 -8 -1 -12 -13 -10 -14 3 -27 31 -52 114 -38 127 -38 129 -18 121 8 -3 15 -1
15 4 0 6 4 10 8 10 5 0 19 -51 32 -112z m-3252 61 c12 -5 22 -11 22 -13 0 -3
-14 -44 -31 -91 -17 -47 -29 -88 -27 -90 2 -3 18 -8 35 -11 30 -6 30 -5 59 75
31 87 27 84 92 60 28 -11 28 -14 -3 -95 -14 -36 -25 -70 -25 -75 0 -5 17 -16
37 -24 44 -18 42 -20 79 88 16 43 33 77 41 77 7 0 30 -7 51 -16 l39 -15 -50
-137 c-27 -75 -53 -141 -58 -146 -7 -8 -402 127 -423 145 -8 7 38 152 81 257
14 35 16 35 81 11z m7207 -6 c26 -65 65 -186 65 -204 0 -129 -279 -253 -388
-172 -35 26 -56 63 -92 161 l-29 80 207 75 c114 42 212 76 218 77 7 0 15 -8
19 -17z m-2682 -136 c-10 -44 -227 -300 -251 -295 -9 2 -15 7 -15 11 1 10 267
326 271 323 1 -2 -1 -19 -5 -39z m-1828 -109 c164 -194 157 -184 142 -197 -13
-10 -83 62 -222 227 -25 30 -51 103 -36 101 3 0 56 -59 116 -131z m2592 -45
l-43 -66 -364 -203 -364 -203 -18 27 c-10 15 -18 32 -18 38 0 5 154 111 342
234 351 230 361 236 465 239 l43 1 -43 -67z m-1751 -18 c-9 -46 -12 -43 -19
19 -4 43 -3 46 10 33 11 -11 14 -25 9 -52z m-1271 -172 c192 -118 351 -216
353 -218 7 -6 -32 -65 -43 -65 -5 0 -173 85 -373 188 l-362 188 -46 67 -45 68
83 -7 83 -7 350 -214z m1337 183 c-3 -6 -5 -30 -3 -54 3 -61 -17 -87 -78 -102
-73 -17 -185 -17 -207 1 -9 7 -25 13 -35 11 -32 -5 -32 19 0 48 28 26 31 27
31 9 0 -50 16 -59 98 -59 88 1 151 13 163 32 5 7 9 44 9 81 0 57 2 66 14 55 8
-7 11 -17 8 -22z m78 -47 c-6 -40 -14 -76 -17 -79 -7 -6 4 119 13 143 13 36
16 7 4 -64z m1305 65 c-11 -8 -136 -97 -278 -196 -241 -168 -259 -179 -272
-161 -8 10 -11 21 -7 25 4 4 101 81 216 172 221 175 211 169 326 174 33 1 34
1 15 -14z m-1713 -28 c-10 -14 -22 -22 -26 -19 -3 4 4 17 16 30 28 30 36 22
10 -11z m-1087 5 c45 -6 74 -24 263 -165 116 -87 212 -159 212 -161 0 -12 -14
-35 -21 -35 -6 0 -553 352 -568 366 -7 6 58 3 114 -5z m509 -88 c58 -64 83
-100 77 -106 -7 -7 -43 20 -107 79 -68 62 -92 90 -81 92 9 2 17 10 17 18 0 8
2 14 4 14 2 0 43 -43 90 -97z m1201 87 c-3 -5 -18 -10 -33 -9 -24 0 -25 1 -7
9 28 12 47 12 40 0z m633 -20 c10 0 -19 -36 -73 -90 -82 -83 -110 -101 -110
-73 0 20 160 194 163 178 2 -8 11 -15 20 -15z m177 21 c-98 -91 -312 -270
-319 -268 -5 2 -11 8 -13 13 -6 18 250 242 288 252 45 13 55 14 44 3z m-2140
-127 c64 -54 126 -106 137 -115 20 -15 18 -39 -2 -39 -8 0 -276 214 -318 255
-11 10 -7 11 26 5 32 -5 67 -30 157 -106z m1275 55 c0 -10 4 -20 9 -24 12 -7
31 26 31 54 0 27 17 27 25 1 7 -22 -4 -47 -34 -74 -12 -11 -21 -27 -21 -36 0
-28 -20 -40 -46 -28 -31 14 -30 26 1 40 30 14 32 37 5 71 -12 15 -17 32 -13
43 6 15 8 15 25 -6 10 -12 18 -30 18 -41z m-676 -63 c26 -63 18 -64 -19 -2
-19 32 -35 65 -35 74 0 21 34 -24 54 -72z m876 39 c0 -16 -27 -27 -35 -15 -4
6 -1 10 6 10 9 0 9 3 0 14 -10 12 -8 13 8 9 12 -3 21 -11 21 -18z m-1050 -30
c-7 -8 -16 -12 -21 -10 -4 3 -1 14 9 23 20 20 30 9 12 -13z m-45 -22 c-9 -37
-18 -20 -9 19 4 18 9 27 11 20 3 -7 2 -24 -2 -39z m119 25 c9 -12 16 -31 16
-41 0 -11 8 -35 17 -54 16 -34 16 -36 -2 -49 -32 -24 -45 -17 -42 23 2 35 0
37 -40 47 -23 6 -48 17 -55 24 -18 18 35 16 72 -3 36 -19 39 -7 9 41 -17 28
-18 34 -5 34 8 0 22 -10 30 -22z m606 -28 c-27 -21 -40 -25 -40 -12 0 9 38 30
55 31 6 0 -1 -8 -15 -19z m350 10 c0 -5 -5 -10 -11 -10 -5 0 -7 5 -4 10 3 6 8
10 11 10 2 0 4 -4 4 -10z m120 -10 c0 -5 -14 -7 -32 -3 -46 8 -48 13 -5 13 21
0 37 -4 37 -10z m-198 -22 c-19 -19 -14 -56 9 -68 27 -15 47 -6 59 25 11 30
30 34 23 5 -9 -33 -53 -62 -83 -55 -54 14 -64 44 -28 82 12 13 24 23 27 23 3
0 0 -5 -7 -12z m-748 -32 c-9 -15 -19 -25 -21 -22 -3 2 3 16 13 30 9 15 19 25
21 22 3 -2 -3 -16 -13 -30z m914 -37 c-19 -35 -40 -65 -46 -67 -7 -2 1 18 18
44 16 26 30 53 30 59 0 6 5 16 12 23 25 25 19 1 -14 -59z m990 -4 l-43 -64
-249 -111 c-136 -62 -252 -108 -256 -103 -24 24 1 42 280 188 162 85 298 154
303 155 4 0 -12 -29 -35 -65z m-1610 22 c5 -38 32 -35 32 3 0 25 4 30 25 30
21 0 25 -5 25 -31 0 -24 4 -30 18 -27 10 2 18 14 20 31 4 35 25 30 32 -8 7
-41 30 -45 30 -5 0 24 4 31 17 28 12 -2 17 -13 18 -32 0 -40 20 -44 31 -7 7
23 12 28 23 21 12 -7 13 -13 3 -34 -10 -23 -9 -26 7 -26 12 0 21 9 25 25 4 16
11 22 21 19 11 -4 12 -12 4 -32 -7 -19 -6 -27 3 -33 12 -8 31 8 41 35 3 8 9 7
18 -2 11 -10 11 -17 2 -31 -7 -10 -9 -22 -6 -25 13 -13 32 -5 38 15 4 11 12
18 18 16 13 -4 13 -22 2 -49 -10 -25 21 -24 37 1 9 15 15 17 25 9 11 -9 10
-14 -4 -30 -13 -14 -14 -21 -5 -30 9 -9 16 -7 28 11 12 16 19 20 27 12 7 -7 6
-16 -6 -29 -16 -17 -16 -20 -2 -32 13 -11 19 -10 35 5 16 14 23 16 32 7 9 -9
7 -16 -6 -31 -26 -29 -10 -48 18 -22 17 16 25 18 34 9 9 -9 7 -17 -9 -34 -28
-30 -16 -49 17 -27 20 13 27 14 37 3 9 -9 9 -14 1 -17 -29 -10 -43 -28 -34
-43 8 -12 13 -13 30 -2 26 16 30 15 30 -3 0 -9 -7 -18 -15 -21 -17 -7 -19 -22
-6 -43 6 -10 13 -11 29 -2 16 8 23 8 28 -1 4 -6 3 -13 -2 -15 -25 -9 -36 -23
-31 -37 5 -12 12 -14 32 -6 19 7 25 6 25 -5 0 -7 -9 -17 -21 -20 -31 -10 -20
-41 14 -37 34 3 35 -13 2 -25 -18 -6 -22 -12 -15 -22 7 -13 63 -3 361 61 324
70 355 75 388 63 23 -8 31 -15 21 -18 -8 -3 -161 -33 -340 -67 -428 -81 -420
-79 -420 -96 0 -8 10 -14 23 -14 12 0 216 29 454 64 l431 63 72 -31 c68 -29
70 -31 43 -38 -25 -6 -959 -79 -1006 -78 -13 0 -18 -6 -15 -22 3 -19 8 -23 38
-21 19 2 290 17 601 34 l566 31 74 -34 74 -35 -73 -37 -74 -37 -507 15 c-652
20 -701 20 -701 1 0 -8 8 -15 18 -15 9 0 233 -11 497 -25 264 -14 496 -25 515
-25 33 -1 31 -3 -40 -39 l-75 -38 -454 50 c-378 41 -455 47 -462 36 -4 -8 -5
-17 -1 -20 4 -4 181 -33 394 -65 234 -35 384 -62 379 -67 -24 -24 -109 -15
-436 47 -330 63 -354 65 -355 35 0 -4 11 -10 25 -13 37 -9 32 -29 -5 -21 -26
6 -30 4 -30 -14 0 -11 9 -22 20 -26 11 -3 20 -13 20 -20 0 -12 -6 -12 -27 -4
-20 7 -28 7 -34 -3 -8 -12 9 -32 34 -41 6 -2 7 -9 3 -15 -5 -9 -13 -9 -26 -2
-27 14 -37 12 -45 -7 -4 -12 1 -24 14 -35 19 -15 28 -38 16 -38 -3 0 -16 7
-30 16 -22 14 -24 14 -34 -4 -9 -17 -6 -22 19 -32 17 -7 30 -16 30 -21 0 -18
-22 -20 -47 -4 -36 24 -56 3 -22 -23 19 -15 25 -31 27 -70 2 -28 -1 -53 -6
-56 -5 -3 -7 6 -4 19 2 15 0 25 -7 25 -6 0 -11 8 -11 18 0 25 -45 68 -55 52
-4 -6 3 -22 16 -36 17 -19 20 -27 11 -36 -9 -9 -18 -6 -37 12 -20 19 -27 21
-40 10 -14 -12 -13 -15 6 -36 12 -13 18 -28 13 -35 -5 -9 -14 -4 -30 17 -18
22 -26 26 -36 16 -9 -9 -7 -17 10 -35 16 -17 19 -26 11 -34 -8 -8 -17 -4 -34
14 -28 33 -52 23 -29 -12 15 -23 12 -45 -5 -45 -4 0 -13 11 -19 25 -15 33 -47
35 -38 3 12 -38 12 -51 0 -55 -6 -2 -17 9 -23 25 -9 22 -18 28 -31 25 -18 -5
-18 -8 -5 -39 19 -45 -5 -53 -25 -8 -10 23 -19 31 -28 25 -11 -6 -11 -13 -1
-35 11 -23 10 -29 -2 -36 -10 -7 -17 -2 -25 23 -10 28 -41 47 -37 22 8 -54 7
-60 -9 -63 -15 -3 -18 4 -18 33 0 29 -4 36 -17 33 -12 -2 -17 -13 -17 -37 -1
-19 -7 -36 -13 -38 -8 -3 -13 4 -13 15 0 31 -11 52 -26 52 -9 0 -14 -12 -14
-35 0 -31 -3 -35 -25 -35 -22 0 -25 4 -25 35 0 46 -27 49 -32 3 -2 -21 -8 -33
-18 -33 -11 0 -14 10 -12 38 2 27 -1 37 -11 37 -16 0 -27 -21 -27 -51 0 -11
-7 -19 -16 -19 -14 0 -15 7 -10 40 8 52 -17 56 -34 6 -8 -25 -16 -33 -26 -29
-10 3 -13 12 -8 22 3 9 9 26 11 39 9 37 -22 26 -36 -14 -9 -26 -16 -33 -24
-25 -7 7 -7 18 1 36 7 15 10 31 7 36 -12 18 -33 8 -44 -21 -5 -16 -14 -30 -20
-30 -19 0 -22 20 -6 49 11 22 12 32 3 37 -10 7 -18 -1 -44 -43 -9 -14 -15 -15
-24 -6 -10 9 -8 18 9 42 15 21 18 32 10 37 -13 7 -71 -55 -63 -67 7 -13 -127
-174 -151 -182 -16 -5 -34 -4 -52 5 -37 17 -44 67 -14 97 28 28 47 27 21 -1
-25 -27 -25 -40 -2 -60 36 -31 50 -29 92 19 56 64 102 141 89 149 -7 4 0 17
16 34 36 38 13 52 -25 15 -35 -33 -53 -15 -20 20 19 21 21 27 10 40 -12 14
-16 13 -42 -12 -22 -21 -31 -24 -40 -15 -10 10 -6 18 17 37 24 19 28 26 18 36
-10 10 -18 8 -41 -14 -22 -21 -31 -24 -40 -15 -10 10 -6 18 19 39 42 34 31 59
-13 28 -25 -18 -34 -20 -49 -11 -11 7 -20 8 -24 2 -3 -6 -21 -9 -38 -9 -20 1
-24 3 -12 6 11 2 27 7 35 11 8 3 20 6 25 7 28 3 74 36 69 50 -8 19 -23 19 -48
0 -25 -19 -36 -19 -36 -2 0 8 11 19 25 25 26 12 29 20 19 46 -5 14 -9 14 -36
0 -25 -13 -32 -14 -39 -3 -6 10 0 18 19 28 35 18 33 16 26 34 -5 14 -9 14 -40
1 -30 -13 -34 -13 -34 1 0 9 12 18 30 22 22 4 30 11 28 22 -3 12 -14 15 -41
14 -44 -3 -50 15 -7 24 21 4 30 11 30 25 0 16 -5 19 -22 15 -43 -11 -678 -128
-696 -129 -19 -1 -77 20 -71 26 2 2 178 30 392 62 344 52 387 60 387 76 0 24
18 25 -485 -31 l-430 -47 -75 35 c-41 20 -68 37 -60 38 8 1 247 14 530 28 283
15 517 28 519 31 3 2 -1 10 -7 16 -9 9 -151 8 -609 -5 l-598 -17 -69 36 -70
37 70 35 69 34 602 -34 c579 -32 602 -33 607 -15 2 10 -1 20 -7 22 -7 2 -228
20 -492 40 -264 20 -496 38 -515 42 l-35 5 71 33 71 32 434 -63 c239 -35 444
-64 457 -64 12 0 22 6 22 14 0 17 26 11 -395 91 -192 36 -357 69 -365 72 -10
3 -3 9 20 18 33 11 65 6 375 -61 187 -40 348 -74 358 -74 29 0 19 27 -13 34
-16 3 -30 10 -30 16 0 7 12 9 34 5 25 -5 35 -3 40 10 4 12 -2 19 -24 27 -17 5
-30 16 -30 23 0 11 6 12 31 3 25 -8 33 -8 40 3 6 10 0 18 -20 29 -39 21 -30
42 11 28 24 -8 32 -8 39 3 14 22 11 29 -16 41 -14 6 -25 14 -25 18 0 17 16 19
38 4 20 -13 26 -14 33 -3 13 20 12 22 -23 42 -24 14 -28 21 -19 30 8 8 19 7
42 -7 44 -26 61 -6 19 24 -25 18 -29 25 -19 36 10 13 16 11 39 -11 23 -22 29
-24 39 -11 9 11 6 18 -16 34 -22 17 -25 23 -16 33 10 10 18 8 38 -11 20 -19
27 -21 40 -10 14 12 13 15 -6 36 -32 34 -13 52 21 19 35 -33 53 -15 20 20 -21
23 -22 25 -5 31 12 5 23 0 35 -16 24 -32 47 -17 25 17 -13 19 -14 28 -5 37 8
8 15 6 25 -8 8 -10 16 -24 18 -30 3 -8 8 -8 17 0 9 9 9 17 0 34 -10 18 -9 24
1 31 16 10 29 3 29 -16 0 -18 14 -26 34 -19 12 5 13 10 4 30 -8 17 -8 28 -1
35 7 7 14 0 23 -20 7 -17 16 -31 21 -31 16 0 20 20 8 41 -9 17 -8 23 2 30 10
6 18 0 27 -21 18 -44 42 -40 35 5 -4 28 -2 35 10 35 10 0 17 -11 19 -27 2 -17
9 -28 18 -28 9 0 14 8 13 20 -1 11 0 26 2 33 8 22 30 8 33 -21z m2924 21 c59
-17 120 -77 154 -150 26 -57 29 -73 29 -173 0 -97 -3 -116 -25 -160 -37 -73
-59 -69 -80 15 -9 36 -22 76 -29 90 l-14 24 -9 -24 c-5 -14 -40 -54 -78 -90
-68 -64 -69 -65 -74 -38 -8 40 -59 92 -122 124 l-56 29 5 73 c10 130 82 243
178 278 44 16 73 17 121 2z m-4113 -178 c143 -69 261 -128 261 -131 0 -3 -6
-13 -12 -22 -12 -14 -37 -6 -258 84 -135 55 -252 108 -261 117 -9 9 -33 41
-53 70 l-38 53 50 -23 c28 -13 168 -79 311 -148z m639 86 c17 -17 32 -37 32
-45 0 -9 -23 7 -55 39 -30 30 -55 59 -55 64 0 9 21 -6 78 -58z m1330 15 c-7
-12 -19 -15 -47 -12 -31 5 -32 6 -10 9 17 2 29 11 32 24 5 18 9 19 21 9 11
-10 12 -17 4 -30z m-4294 -77 c116 -54 212 -98 213 -99 5 -3 -10 -103 -17
-115 -6 -9 -410 -80 -460 -80 -15 0 -16 7 -9 48 4 26 8 52 8 58 1 6 52 16 129
23 232 24 228 17 51 88 l-154 61 3 34 c4 46 11 78 19 78 3 0 101 -43 217 -96z
m2946 -38 c0 -4 -9 -20 -20 -34 -12 -15 -48 -69 -80 -119 -41 -64 -66 -93 -79
-93 -11 0 -21 -9 -24 -21 -9 -32 -31 -17 -38 25 -5 31 -4 36 10 30 51 -21 56
-18 117 71 l59 87 -40 34 c-22 18 -43 34 -46 34 -4 0 -10 -11 -13 -25 -4 -14
-11 -23 -17 -20 -7 5 -6 12 2 21 7 8 9 27 5 45 l-6 30 46 -33 c25 -18 48 -36
50 -40 7 -12 42 -10 49 2 4 6 -6 21 -22 33 -60 47 -86 74 -80 84 6 9 127 -97
127 -111z m1227 61 c22 -10 27 -8 43 13 10 14 22 21 26 17 4 -4 -2 -17 -14
-30 -29 -31 -28 -37 12 -76 26 -25 39 -31 55 -26 24 7 55 -11 45 -27 -3 -5
-15 -13 -25 -17 -19 -6 -19 -8 3 -31 12 -13 23 -31 23 -40 0 -8 8 -14 18 -13
12 0 16 -4 13 -13 -3 -9 1 -14 12 -14 15 -1 15 -2 -1 -11 -15 -9 -24 -6 -43
12 -13 12 -24 27 -24 33 -1 6 -10 22 -21 35 -15 18 -23 21 -31 13 -30 -30 -63
5 -34 37 15 16 13 20 -19 51 -19 19 -35 38 -35 43 0 5 -11 18 -25 29 -25 19
-32 47 -17 62 4 4 8 -2 10 -14 2 -11 15 -26 29 -33z m3242 -28 c6 -29 10 -54
8 -56 -2 -2 -104 -23 -226 -47 -150 -29 -224 -39 -227 -32 -2 6 -8 32 -12 57
l-9 47 201 40 c268 53 252 54 265 -9z m-4685 5 c9 -4 21 -15 27 -26 9 -17 8
-18 -8 -9 -52 28 -65 53 -19 35z m1647 -53 c13 -11 22 -22 19 -24 -3 -3 -18 6
-35 19 -16 13 -25 24 -19 24 7 0 22 -9 35 -19z m597 -50 c-18 -23 -58 -43
-186 -90 -90 -34 -167 -61 -172 -61 -4 0 -10 6 -13 14 -4 11 25 27 116 62 67
26 154 60 192 75 88 35 92 35 63 0z m-516 -23 c-6 -6 -19 -7 -29 -3 -12 5 -14
9 -5 12 6 3 9 9 6 15 -4 5 4 5 16 -2 15 -8 19 -15 12 -22z m-2095 -49 c165
-58 201 -77 174 -93 -15 -9 -333 102 -358 126 -25 23 -31 43 -10 35 6 -2 94
-33 194 -68z m316 19 c6 -8 7 -27 2 -44 -7 -24 -9 -26 -13 -9 -2 11 -11 25
-20 31 -9 7 -13 18 -9 28 8 20 26 17 40 -6z m1767 -17 c0 -5 -11 -8 -25 -8
-29 0 -34 14 -7 20 20 4 32 0 32 -12z m-16 -32 c-3 -5 -10 -7 -15 -3 -5 3 -7
10 -3 15 3 5 10 7 15 3 5 -3 7 -10 3 -15z m115 -38 c-6 -2 -21 7 -33 19 l-21
23 33 -19 c18 -10 28 -20 21 -23z m-2150 -46 c90 -34 124 -56 109 -70 -2 -2
-59 12 -126 32 -96 29 -119 39 -111 49 6 7 7 19 3 25 -5 8 -2 11 7 7 8 -2 61
-22 118 -43z m2485 31 c-3 -8 0 -17 7 -21 7 -5 -40 -24 -112 -46 -111 -34
-131 -36 -130 -13 0 8 207 91 228 93 7 1 10 -5 7 -13z m-423 -27 c-34 -17 -68
-28 -75 -26 -14 6 93 56 119 56 11 -1 -9 -14 -44 -30z m2999 -106 c0 -21 3
-48 6 -59 5 -19 -5 -28 -72 -65 l-78 -43 39 -18 c22 -9 57 -24 78 -33 35 -14
37 -17 37 -59 0 -24 3 -51 6 -60 10 -27 -15 -19 -146 45 l-125 61 -96 -1 -96
-2 -7 51 c-4 28 -4 55 -1 60 3 6 48 10 98 10 l92 0 125 75 c69 41 128 74 133
75 4 0 7 -17 7 -37z m-7280 -247 l0 -53 -82 -6 c-46 -4 -149 -7 -229 -7 l-146
0 -6 51 c-4 29 -4 56 -1 60 3 5 108 9 235 9 l229 0 0 -54z m6285 34 c31 -12
84 -70 113 -125 25 -46 27 -60 27 -165 0 -99 -3 -122 -23 -166 -30 -66 -79
-115 -92 -94 -5 8 -10 35 -10 59 0 46 -19 121 -30 121 -4 0 -12 -11 -18 -24
-5 -13 -34 -37 -64 -54 -29 -16 -63 -40 -75 -51 l-23 -22 0 27 c0 43 -37 97
-97 139 l-55 40 6 49 c6 51 51 156 83 191 72 81 167 109 258 75z m-2072 -267
c4 -19 2 -33 -3 -33 -6 0 -10 17 -10 37 0 43 5 41 13 -4z m152 -35 c44 -42 53
-77 26 -109 l-20 -24 2 47 c1 33 -4 53 -17 67 -19 21 -19 21 -33 1 -18 -26
-35 -25 -59 1 -18 20 -18 21 1 35 30 22 63 16 100 -18z m301 -29 c35 -9 42
-15 40 -35 0 -13 -4 -24 -7 -24 -7 0 -220 79 -231 86 -4 3 -5 11 -2 18 4 11
20 9 82 -10 42 -13 96 -29 118 -35z m-2336 38 c0 -7 -51 -31 -113 -55 -123
-45 -132 -48 -121 -31 3 6 0 15 -7 20 -16 9 -16 9 109 49 98 32 132 36 132 17z
m180 -27 c0 -5 8 -7 18 -3 9 3 0 -7 -20 -21 -21 -15 -38 -33 -38 -40 0 -38 87
-186 110 -186 8 0 44 18 79 41 35 22 68 38 74 36 6 -2 -24 -23 -66 -48 -60
-34 -77 -49 -75 -64 5 -32 33 -29 103 14 71 44 91 50 78 26 -5 -8 -44 -32 -88
-54 -70 -35 -83 -38 -100 -27 -11 8 -22 22 -24 32 -2 11 -9 23 -17 27 -18 10
-78 113 -93 160 -8 24 -9 42 -3 53 6 12 4 26 -7 46 -14 24 -14 30 -2 37 16 10
71 -12 71 -29z m1735 -19 c62 -23 102 -47 93 -56 -8 -8 -149 52 -167 71 -18
19 -23 20 74 -15z m-96 -34 c1 -10 -3 -15 -9 -12 -5 3 -10 21 -9 38 0 27 2 29
9 12 5 -11 9 -28 9 -38z m2893 -74 l210 -106 -7 -36 c-13 -78 -17 -91 -28 -91
-7 0 -102 -11 -212 -25 -110 -14 -212 -25 -228 -25 -26 0 -27 1 -21 43 10 64
20 77 58 77 31 0 34 3 40 38 4 20 9 48 12 62 4 22 -1 29 -32 43 -34 17 -36 20
-30 55 9 50 16 72 23 72 3 0 100 -48 215 -107z m-7029 90 c3 -5 7 -29 11 -54
l7 -45 -106 -84 c-59 -47 -103 -86 -98 -87 4 -2 55 6 113 16 58 11 108 16 112
13 3 -4 9 -28 13 -54 l7 -47 -33 -6 c-324 -58 -415 -72 -420 -67 -4 4 -10 28
-13 54 l-7 47 110 88 c60 48 109 88 108 89 -1 1 -55 -8 -119 -19 -65 -11 -120
-18 -123 -15 -3 2 -6 27 -7 53 l-3 49 200 37 c217 40 242 43 248 32z m4217
-24 c0 -5 -7 -9 -15 -9 -15 0 -20 12 -9 23 8 8 24 -1 24 -14z m529 -97 c19 -9
41 -27 49 -40 16 -24 24 -27 -290 88 -78 28 -100 45 -83 62 6 6 273 -84 324
-110z m-2391 91 c-2 -12 -56 -37 -188 -85 -101 -37 -189 -68 -195 -68 -5 0 4
13 20 30 22 21 72 44 185 84 85 30 161 55 168 55 8 1 12 -7 10 -16z m1812 7
c0 -5 -4 -10 -10 -10 -5 0 -10 5 -10 10 0 6 5 10 10 10 6 0 10 -4 10 -10z
m128 -42 c2 -9 -13 -45 -32 -80 l-35 -65 27 -20 c22 -18 25 -24 16 -39 -8 -13
-23 -19 -45 -19 -44 -1 -89 -31 -89 -60 0 -32 -33 -70 -54 -62 -15 6 -15 8 4
27 31 31 26 62 -15 84 -46 25 -39 30 19 14 40 -11 48 -10 62 4 15 15 15 18 -5
44 -37 47 -18 83 24 44 l23 -22 17 31 c9 19 13 41 9 53 -4 15 -3 18 6 13 18
-11 30 16 18 39 -10 18 -9 19 4 9 22 -19 31 -3 11 19 -16 18 -16 18 8 10 13
-5 25 -16 27 -24z m-107 9 c-1 -12 -15 -9 -19 4 -3 6 1 10 8 8 6 -3 11 -8 11
-12z m-83 -23 c2 -14 1 -16 -6 -5 -8 11 -10 11 -15 0 -3 -8 -6 -4 -6 9 -1 28
23 25 27 -4z m-1713 -35 c4 -11 5 -22 3 -24 -9 -9 -598 -293 -598 -288 0 2 19
31 41 64 l41 58 247 105 c135 58 249 105 253 106 4 0 10 -9 13 -21z m2262 -81
l242 -102 39 -55 c21 -31 42 -62 46 -69 6 -10 -587 279 -603 294 -8 7 9 34 21
34 7 0 122 -46 255 -102z m-2005 38 c-3 -5 -11 -1 -19 9 -20 28 -16 41 6 19
10 -10 16 -23 13 -28z m1408 -7 c0 -18 -4 -28 -10 -24 -5 3 -10 20 -10 36 0
18 4 28 10 24 6 -3 10 -20 10 -36z m-1615 -40 c9 -17 15 -33 13 -35 -3 -2
-159 -101 -349 -221 l-344 -217 -79 -8 c-44 -4 -81 -6 -83 -5 -1 2 18 34 45
71 l47 68 355 189 c195 104 361 189 367 189 7 0 20 -14 28 -31z m2284 -162
l361 -193 46 -68 46 -68 -82 7 -83 7 -341 214 c-187 118 -345 220 -350 227 -9
14 18 67 34 67 4 0 170 -87 369 -193z m-1952 75 c-64 -58 -98 -82 -116 -82
-13 1 -12 3 4 12 11 6 43 33 72 59 28 27 59 49 67 49 9 0 -2 -15 -27 -38z
m-267 -21 c-1 -3 -98 -79 -216 -169 l-215 -164 -77 -5 c-42 -3 -74 -2 -70 2 5
5 131 90 280 191 240 160 275 180 286 166 6 -9 12 -18 12 -21z m1389 -5 c-8
-22 -16 -31 -20 -24 -8 12 19 74 28 65 3 -3 -1 -22 -8 -41z m674 -137 c149
-100 276 -185 282 -190 5 -5 -24 -6 -70 -2 l-80 6 -205 155 c-251 190 -237
177 -220 196 7 9 14 16 16 16 3 0 127 -82 277 -181z m-513 17 c0 -8 -29 16
-65 53 -36 37 -65 74 -65 82 1 18 130 -116 130 -135z m-1176 81 c-4 -11 -13
-13 -40 -7 -45 10 -55 20 -22 20 14 0 31 7 39 16 11 13 14 13 21 0 4 -8 5 -21
2 -29z m-326 -32 c-7 -7 -68 -61 -136 -119 -96 -84 -131 -109 -160 -113 -46
-7 -51 -11 137 146 115 97 147 118 158 109 11 -9 12 -13 1 -23z m1842 -97 c87
-73 157 -134 156 -136 -2 -1 -19 1 -39 5 -24 6 -73 40 -156 112 -66 56 -125
109 -131 117 -11 12 -6 34 7 34 3 0 76 -60 163 -132z m-561 94 c0 -11 -2 -13
-6 -4 -4 10 -8 10 -19 1 -17 -14 -19 2 -2 19 14 14 28 6 27 -16z m2244 14 c43
-17 90 -73 112 -130 27 -71 18 -193 -22 -278 -47 -100 -137 -188 -165 -160 -4
4 -2 39 5 77 7 39 11 81 9 93 l-4 24 -23 -22 c-13 -12 -52 -30 -87 -40 -35 -9
-71 -21 -80 -25 -16 -6 -18 -1 -18 39 0 54 -17 91 -67 147 l-35 39 27 55 c75
147 233 230 348 181z m-2203 -24 c0 -13 -12 -22 -22 -16 -10 6 -1 24 13 24 5
0 9 -4 9 -8z m120 -92 c0 -58 -77 -104 -109 -66 -7 8 -16 29 -21 48 l-10 33
20 -25 c11 -14 20 -28 20 -32 0 -18 50 -6 64 14 23 32 20 55 -9 74 -14 9 -25
26 -25 38 1 18 5 17 35 -16 24 -26 35 -47 35 -68z m-985 79 c4 -5 0 -18 -9
-27 -10 -12 -13 -27 -9 -42 8 -31 22 -41 47 -34 12 4 16 2 12 -5 -13 -21 26
-25 42 -5 13 18 14 17 8 -10 l-7 -29 27 18 27 17 -19 -26 c-21 -28 -29 -31
-39 -16 -3 6 -14 10 -24 10 -10 0 -32 7 -50 16 -31 16 -33 15 -48 -6 -8 -11
-25 -25 -38 -30 -31 -12 -87 4 -103 30 -14 23 -7 25 28 5 33 -19 69 -19 91 1
17 16 17 17 -4 35 -26 21 -16 46 26 67 28 14 38 38 11 28 -8 -3 -12 -2 -9 4 8
13 32 13 40 -1z m684 -7 c8 -15 4 -22 -19 -35 -36 -22 -52 -22 -22 -1 17 11
20 19 13 28 -11 13 -5 26 10 26 5 0 13 -8 18 -18z m-1084 -2 c3 -5 -34 -53
-82 -106 -60 -67 -89 -92 -91 -81 -2 10 -11 17 -20 17 -15 0 163 178 180 180
4 0 9 -4 13 -10z m1700 -99 c46 -47 64 -71 52 -71 -9 0 -17 -8 -17 -17 0 -11
-26 11 -67 57 -91 99 -105 118 -98 130 9 14 46 -14 130 -99z m-530 59 c0 -32
-2 -35 -26 -32 -16 2 -32 -5 -45 -19 l-19 -22 63 5 c66 5 79 -8 26 -26 -16 -5
-57 -27 -92 -48 -34 -21 -73 -38 -87 -38 -13 0 -26 -4 -29 -9 -3 -4 -16 -6
-30 -4 -13 3 -36 -3 -50 -13 -20 -12 -30 -14 -38 -6 -8 8 -18 6 -36 -8 -32
-26 -68 -25 -82 0 -11 20 3 30 15 10 9 -15 30 -12 55 8 21 17 22 20 8 48 -9
16 -12 37 -9 48 6 15 10 11 26 -23 10 -23 24 -46 30 -51 16 -14 45 -2 45 18 0
8 7 24 16 33 16 18 17 17 36 -6 25 -32 54 -32 101 0 35 24 52 53 25 42 -52
-19 -60 -19 -50 0 6 10 26 34 46 52 20 19 36 42 36 51 0 24 11 31 40 28 21 -3
25 -8 25 -38z m-660 10 c13 -21 -10 -36 -45 -29 -20 4 -26 7 -14 8 12 0 24 8
28 16 6 17 22 20 31 5z m415 -24 c0 -2 -16 -13 -35 -25 -38 -22 -49 -12 -13
13 21 15 48 21 48 12z m-868 -52 c-43 -57 -247 -302 -250 -300 -1 2 1 19 5 39
11 52 230 312 249 296 12 -9 11 -15 -4 -35z m573 37 c-14 -13 -83 -26 -70 -13
9 9 29 15 70 21 6 0 6 -2 0 -8z m173 -3 c-4 -19 -20 -28 -49 -28 -25 0 -27 -4
-33 -57 -9 -81 -28 -106 -21 -28 12 125 10 120 60 123 33 2 45 -1 43 -10z
m806 -121 c90 -105 116 -141 121 -172 9 -49 16 -56 -145 138 -96 116 -120 151
-109 158 8 5 15 9 16 9 1 0 54 -60 117 -133z m-627 88 c-26 -23 -47 -32 -47
-20 0 6 62 45 70 45 3 -1 -8 -12 -23 -25z m-337 -30 c0 -24 -9 -45 -31 -70
-38 -43 -73 -46 -112 -10 -36 34 -34 39 6 15 28 -17 39 -18 66 -9 33 12 56 42
46 59 -8 13 4 50 16 50 5 0 9 -16 9 -35z m270 19 c0 -14 -28 -27 -41 -18 -5 3
-9 10 -9 15 0 6 5 7 10 4 6 -3 10 -2 10 3 0 5 7 9 15 9 8 0 15 -6 15 -13z
m-771 -13 c11 -7 -24 -69 -169 -290 -100 -155 -185 -281 -188 -281 -2 0 -2 33
0 74 l5 74 159 215 c87 119 164 216 169 216 6 1 16 -3 24 -8z m1449 -204 l160
-214 7 -84 7 -84 -191 290 c-184 280 -197 304 -155 305 6 0 84 -96 172 -213z
m-1338 132 c0 -5 -86 -174 -191 -376 l-191 -368 -64 -43 -64 -42 0 64 c0 36 5
77 10 91 6 15 105 181 221 370 l210 344 35 -16 c19 -9 34 -20 34 -24z m1315
-318 l218 -354 5 -79 5 -80 -66 44 -66 43 -167 320 c-92 176 -180 343 -196
372 l-29 52 38 19 c21 11 39 19 39 19 1 -1 100 -161 219 -356z m2919 208 c7
-6 -20 -109 -29 -109 -2 0 -36 12 -75 26 -40 14 -73 24 -75 22 -7 -9 -36 -110
-33 -114 3 -2 36 -15 74 -28 76 -26 77 -28 46 -98 l-17 -36 -217 75 -216 75
15 46 c9 26 19 50 22 55 4 4 45 -6 92 -22 l85 -28 20 58 21 58 -81 27 c-45 15
-84 30 -89 33 -4 4 -1 23 6 42 8 19 17 42 20 51 6 16 29 10 214 -54 114 -39
212 -74 217 -79z m-6985 81 c45 -22 77 -79 87 -152 9 -62 -16 -112 -74 -149
-51 -32 -313 -123 -323 -111 -3 4 -11 21 -17 37 -5 17 -13 37 -16 46 -6 13 19
25 136 64 154 52 194 79 182 118 -18 61 -52 61 -221 2 -70 -25 -133 -43 -139
-41 -12 4 -40 93 -32 101 2 3 69 27 149 55 159 55 209 61 268 30z m2815 4 c9
-3 16 -12 16 -19 0 -16 -197 -496 -207 -505 -25 -22 -123 -90 -123 -85 0 7
292 615 296 615 1 0 9 -3 18 -6z m1075 -296 c82 -167 147 -305 145 -307 -1 -1
-31 17 -65 42 l-63 45 -103 248 c-77 186 -100 251 -91 261 6 7 15 13 20 13 5
0 76 -136 157 -302z m-977 256 c3 -3 -19 -82 -51 -175 -48 -146 -61 -173 -88
-195 l-32 -25 50 143 c28 79 60 169 71 201 18 51 34 68 50 51z m809 -189 c37
-104 66 -191 63 -194 -2 -2 -15 6 -28 18 -26 25 -141 344 -130 362 15 24 31
-8 95 -186z m-725 133 c-3 -13 -15 -69 -27 -126 -21 -95 -24 -102 -43 -96 -12
4 -22 8 -24 9 -2 2 49 185 63 223 2 6 12 12 21 12 12 0 15 -6 10 -22z m502
-25 c62 -289 65 -307 50 -343 -15 -35 -15 -33 -55 170 -22 113 -38 208 -36
213 12 22 32 2 41 -40z m120 -62 c37 -125 37 -131 17 -131 -8 0 -15 -5 -15
-12 0 -32 -14 11 -36 109 -27 126 -29 143 -11 143 8 0 26 -43 45 -109z m-524
77 c-38 -231 -66 -393 -68 -395 -1 -2 -8 14 -15 35 -11 33 -9 57 13 182 38
209 36 200 55 200 13 0 17 -6 15 -22z m96 -50 c0 -77 -29 -610 -33 -615 -2 -1
-18 28 -37 66 l-33 69 27 249 c32 299 31 293 56 293 18 0 20 -7 20 -62z m124
20 c3 -24 13 -212 22 -419 l17 -376 -31 -66 c-17 -37 -33 -67 -36 -67 -3 0
-21 31 -41 69 l-34 69 9 359 c5 197 10 384 10 416 l0 57 39 0 c39 0 40 -1 45
-42z m129 -227 l37 -268 -34 -74 c-19 -41 -35 -69 -35 -64 -1 6 -12 150 -26
320 -31 381 -31 355 -2 355 22 0 24 -6 60 -269z m2234 -23 c91 -60 113 -198
53 -325 -57 -123 -208 -246 -261 -212 -11 7 -8 20 17 66 18 32 35 74 39 93 7
32 6 34 -10 20 -12 -10 -50 -17 -117 -20 -85 -4 -97 -3 -91 10 4 8 9 38 11 67
3 41 -2 65 -22 109 -18 40 -23 61 -16 73 17 33 92 93 154 122 53 26 70 30 132
27 57 -3 79 -9 111 -30z m-621 -407 c57 -26 92 -67 111 -130 42 -146 -39 -336
-185 -430 -53 -34 -102 -41 -102 -16 0 9 11 37 24 63 26 52 43 122 30 122 -5
0 -18 -7 -28 -15 -13 -10 -43 -15 -87 -15 -37 0 -80 -5 -94 -10 -24 -9 -26 -8
-19 7 4 10 10 41 12 70 3 43 -2 63 -28 117 l-32 65 20 28 c95 132 263 196 378
144z m-4646 -50 c117 -62 128 -228 21 -304 -112 -79 -266 -11 -279 123 -2 27
-2 60 2 74 9 35 64 96 101 112 44 19 115 17 155 -5z m5908 -7 c15 -9 38 -31
51 -49 88 -129 7 -286 -146 -285 -93 1 -163 66 -171 156 -6 68 1 95 35 135 56
66 159 86 231 43z m-5278 -635 c88 -60 120 -141 85 -209 l-15 -30 -50 33 c-45
30 -49 35 -47 71 1 27 -4 42 -18 52 -25 18 -49 18 -65 -1 -11 -13 -9 -21 11
-48 99 -134 112 -174 78 -243 -60 -125 -212 -129 -318 -8 -36 40 -51 73 -51
109 0 31 29 105 41 105 6 0 31 -15 57 -32 45 -31 47 -35 38 -60 -21 -58 36
-121 82 -92 32 21 26 59 -22 128 -51 74 -63 119 -47 169 33 98 142 123 241 56z
m4908 -236 c70 -50 70 -49 -2 -101 l-44 -32 -30 25 c-16 14 -33 25 -36 25 -4
0 -32 -19 -62 -42 -44 -33 -54 -46 -50 -62 18 -72 19 -69 -36 -108 -28 -21
-53 -37 -54 -35 -6 5 -164 481 -164 491 1 6 26 29 57 52 l56 41 151 -105 c83
-58 179 -125 214 -149z m-2139 -15 c63 -31 159 -132 200 -210 38 -71 37 -93
-6 -108 -16 -6 -35 -14 -44 -19 -13 -8 -24 1 -53 44 -102 148 -269 253 -461
291 l-40 8 30 7 c17 4 97 7 179 8 135 1 153 -1 195 -21z m-2359 -25 c27 -16
50 -32 50 -37 0 -5 -34 -68 -76 -140 -89 -153 -99 -192 -59 -224 60 -47 90
-23 189 153 43 74 80 135 83 135 8 0 113 -61 113 -65 0 -15 -167 -286 -193
-313 -63 -66 -132 -78 -214 -37 -110 55 -156 133 -133 224 12 47 168 331 182
331 4 0 30 -12 58 -27z m3774 -27 c14 -25 26 -48 26 -53 0 -4 -22 -21 -50 -36
-27 -15 -52 -31 -54 -36 -3 -4 36 -79 86 -166 87 -151 90 -158 72 -172 -25
-19 -95 -55 -99 -51 -3 3 -67 113 -144 246 l-42 73 -53 -31 c-30 -16 -57 -30
-62 -30 -13 0 -69 103 -58 107 5 2 81 46 169 98 88 51 165 94 172 94 6 1 23
-19 37 -43z m-3146 -262 c150 -55 178 -72 191 -122 21 -74 -36 -174 -108 -188
-29 -6 -29 -7 -15 -29 14 -22 42 -210 32 -220 -7 -7 -132 36 -140 48 -3 6 -9
50 -13 99 -5 63 -12 95 -25 111 -24 29 -31 21 -65 -80 -16 -46 -33 -83 -38
-83 -26 0 -117 35 -117 45 0 11 147 442 156 456 7 12 0 14 142 -37z m2598 7
c67 -41 86 -145 39 -215 -24 -35 -24 -36 -4 -36 26 0 176 -147 163 -159 -5 -5
-37 -17 -70 -29 l-62 -20 -73 74 c-56 56 -80 74 -101 74 l-28 0 35 -97 c19
-53 34 -98 32 -98 -1 -1 -30 -12 -65 -23 -46 -15 -64 -18 -67 -9 -42 118 -155
452 -155 458 0 10 267 98 300 99 14 0 39 -9 56 -19z m-1907 -181 c10 -18 86
-499 80 -504 -2 -2 -33 1 -69 7 l-65 12 -3 42 -3 41 -63 11 c-90 16 -93 15
-108 -25 l-13 -36 -65 7 c-36 4 -67 9 -70 12 -4 4 212 434 231 459 12 16 138
-6 148 -26z m1353 -195 c65 -126 118 -231 118 -231 0 -2 -124 -24 -133 -24 -4
0 -14 18 -23 40 -12 29 -21 39 -33 36 -9 -3 -38 -8 -66 -12 -63 -8 -75 -18
-75 -59 0 -37 -5 -40 -84 -50 -56 -7 -57 -7 -52 16 3 13 22 125 41 249 20 124
37 230 40 237 4 12 94 32 130 29 16 -1 46 -52 137 -231z m-592 178 c0 -5 -32
-48 -70 -97 -39 -49 -70 -92 -70 -95 0 -3 38 -71 85 -151 95 -164 96 -158 -16
-159 l-66 -1 -47 101 c-25 56 -48 100 -50 98 -3 -2 -18 -22 -36 -44 -28 -35
-31 -45 -29 -100 l3 -60 -66 -3 -66 -3 -6 123 c-3 68 -8 180 -11 251 l-6 127
33 0 c18 0 50 3 71 6 l37 7 0 -92 c0 -50 3 -91 8 -91 4 0 34 41 67 90 l60 89
50 4 c98 7 125 7 125 0z"/>
<path d="M3353 7485 c3 -11 11 -46 17 -77 6 -32 15 -58 20 -58 14 0 60 23 60
29 0 6 -71 96 -92 116 -7 7 -8 4 -5 -10z"/>
<path d="M6821 7371 l-51 -59 25 -16 c36 -24 43 -20 55 27 6 23 15 57 20 75 5
17 7 32 5 32 -2 0 -26 -26 -54 -59z"/>
<path d="M1700 5998 c-11 -18 -20 -36 -20 -40 0 -4 17 -16 39 -27 l38 -20 18
39 c17 39 17 41 0 60 -26 29 -52 25 -75 -12z"/>
<path d="M8275 5968 c-38 -11 -71 -21 -73 -23 -2 -2 4 -17 13 -34 12 -25 19
-29 33 -22 17 9 111 102 102 100 -3 0 -36 -10 -75 -21z"/>
<path d="M8495 5418 c-60 -23 -111 -42 -113 -44 -9 -7 32 -66 51 -73 37 -14
134 17 180 57 17 15 22 56 11 86 -8 20 1 22 -129 -26z"/>
<path d="M4945 4820 c-131 -74 -167 -101 -154 -115 9 -8 300 158 310 178 17
30 -11 19 -156 -63z"/>
<path d="M5312 4807 c-26 -28 -28 -54 -6 -78 15 -17 15 -20 1 -41 -27 -38 -40
-51 -94 -96 -56 -46 -65 -62 -35 -62 9 0 54 38 99 85 56 58 86 83 97 79 22 -9
34 26 13 38 -12 6 -15 17 -10 38 6 31 -9 60 -31 60 -7 0 -22 -10 -34 -23z m33
-37 c3 -5 1 -10 -4 -10 -6 0 -11 5 -11 10 0 6 2 10 4 10 3 0 8 -4 11 -10z"/>
<path d="M4829 4683 c0 -4 0 -28 1 -53 2 -55 22 -80 49 -63 12 7 22 8 28 2 6
-6 16 -2 27 10 17 18 17 25 5 66 -7 25 -17 45 -21 45 -15 0 -20 -28 -8 -49 6
-12 7 -21 1 -21 -11 0 -21 24 -21 51 0 10 -4 19 -10 19 -5 0 -10 -20 -10 -45
0 -25 -4 -45 -10 -45 -5 0 -10 18 -10 39 0 22 -4 43 -10 46 -5 3 -10 3 -11 -2z"/>
<path d="M4565 4630 c-8 -36 -9 -36 -47 -8 -30 21 -31 21 -44 3 -22 -30 -16
-51 23 -86 l37 -32 17 37 16 36 26 -20 25 -20 13 37 c11 35 10 38 -15 60 -35
30 -43 29 -51 -7z"/>
<path d="M5392 4610 c-30 -28 -36 -62 -19 -97 l15 -29 -65 -39 c-69 -43 -124
-102 -148 -159 -28 -66 -27 -66 98 -66 l112 0 -90 -50 c-140 -78 -193 -142
-187 -222 5 -62 -46 49 -102 221 -44 135 -46 145 -29 154 69 37 139 157 131
224 -5 43 -20 34 -53 -32 -41 -82 -59 -107 -93 -127 -35 -21 -32 -23 -86 75
-20 37 -41 67 -45 67 -5 0 -14 -20 -21 -45 -12 -44 -12 -47 19 -90 17 -24 31
-46 31 -49 0 -3 -14 -6 -30 -6 -41 0 -73 34 -95 101 -10 30 -27 64 -38 76 -19
22 -21 22 -48 6 -40 -24 -61 -74 -72 -173 -15 -137 -32 -162 -85 -124 -29 20
-51 63 -74 144 l-18 65 4 -55 c8 -111 79 -240 131 -240 20 0 74 49 75 68 5 88
21 205 31 223 12 23 13 22 39 -36 42 -91 67 -110 152 -111 57 -1 73 -5 81 -19
20 -36 57 -139 57 -160 0 -31 -63 -156 -100 -199 -64 -72 -186 -111 -210 -67
-15 28 -12 97 6 161 26 94 25 97 -10 26 -66 -129 -71 -223 -16 -278 38 -38 88
-38 156 1 78 45 143 134 183 255 l17 49 13 -44 c7 -24 26 -76 43 -116 26 -64
34 -74 72 -92 38 -19 156 -31 156 -16 0 2 9 27 20 54 l19 49 -59 -1 c-44 -2
-64 2 -76 15 -40 40 -6 123 71 172 49 33 194 80 296 97 l77 12 24 64 c14 34
23 65 20 68 -3 3 -90 5 -194 5 -133 0 -187 3 -182 11 3 6 31 27 62 46 46 30
59 34 74 24 14 -9 18 -8 18 4 0 8 22 26 49 39 91 47 80 116 -26 170 -42 21
-55 20 -81 -4z m53 -72 c30 -13 32 -24 6 -31 -21 -5 -41 9 -41 30 0 16 2 16
35 1z"/>
<path d="M5114 4266 c-4 -10 -2 -32 4 -48 9 -24 8 -27 -2 -19 -8 7 -16 25 -20
42 -3 19 -10 28 -17 24 -6 -5 -8 -21 -5 -40 4 -19 2 -36 -4 -40 -6 -4 -10 5
-10 22 0 16 -7 38 -15 49 -13 17 -14 14 -15 -44 0 -67 15 -86 50 -64 13 8 21
7 29 -1 8 -8 17 -6 32 10 l21 21 -20 53 c-16 44 -22 50 -28 35z"/>
<path d="M4776 4185 c-8 -42 -15 -43 -47 -9 l-24 25 -17 -21 c-27 -33 -22 -56
17 -85 39 -30 51 -27 60 15 l7 30 26 -20 c30 -24 43 -16 45 31 2 26 -4 36 -29
51 l-32 18 -6 -35z"/>
<path d="M4948 3828 c-49 -27 -88 -53 -88 -59 0 -14 5 -12 93 37 96 54 90 50
86 62 -2 5 -43 -13 -91 -40z"/>
<path d="M5701 4794 c0 -11 3 -14 6 -6 3 7 2 16 -1 19 -3 4 -6 -2 -5 -13z"/>
<path d="M5915 4010 c3 -5 8 -10 11 -10 2 0 4 5 4 10 0 6 -5 10 -11 10 -5 0
-7 -4 -4 -10z"/>
<path d="M4102 3998 c5 -15 28 -23 28 -10 0 5 -7 13 -16 16 -10 4 -14 1 -12
-6z"/>
<path d="M8588 3755 l-4 -35 67 0 c37 0 70 4 73 9 5 7 -106 61 -125 61 -4 0
-9 -16 -11 -35z"/>
<path d="M5860 3710 c-12 -8 -11 -10 8 -10 12 0 22 5 22 10 0 13 -11 13 -30 0z"/>
<path d="M5385 3510 c3 -5 8 -10 11 -10 2 0 4 5 4 10 0 6 -5 10 -11 10 -5 0
-7 -4 -4 -10z"/>
<path d="M7370 1681 c0 -14 54 -138 63 -142 8 -5 67 33 67 43 0 3 -29 29 -65
57 -36 28 -65 47 -65 42z"/>
<path d="M3776 1124 c-9 -26 -16 -49 -16 -50 0 -1 23 -8 51 -14 54 -13 75 -5
79 30 4 30 -1 40 -27 53 -64 33 -70 32 -87 -19z"/>
<path d="M6275 1158 c-40 -14 -39 -11 -20 -63 19 -49 25 -50 88 -18 20 10 27
21 27 41 0 50 -31 62 -95 40z"/>
<path d="M4402 910 c-18 -41 -33 -79 -33 -85 0 -5 18 -13 41 -16 l40 -5 -1 35
c-1 20 -4 61 -7 91 l-7 55 -33 -75z"/>
<path d="M5708 964 c-3 -5 -9 -42 -12 -83 l-7 -74 42 7 c24 4 45 8 46 10 2 2
-12 36 -30 76 -19 41 -36 69 -39 64z"/>
</g>
</svg>
